<svg width="20" height="20" viewBox="0 0 20 20" fill="none" xmlns="http://www.w3.org/2000/svg">
<path fill-rule="evenodd" clip-rule="evenodd" d="M4.33331 10.002C4.33331 10.0941 4.25869 10.1687 4.16665 10.1687C4.0746 10.1687 3.99998 10.0941 3.99998 10.002C3.99998 9.90996 4.0746 9.83534 4.16665 9.83534C4.25869 9.83534 4.33331 9.90996 4.33331 10.002ZM4.16665 8.16867C3.15412 8.16867 2.33331 8.98948 2.33331 10.002C2.33331 11.0145 3.15412 11.8353 4.16665 11.8353C5.17917 11.8353 5.99998 11.0145 5.99998 10.002C5.99998 8.98948 5.17917 8.16867 4.16665 8.16867ZM9.99998 10.1687C10.092 10.1687 10.1666 10.0941 10.1666 10.002C10.1666 9.90996 10.092 9.83534 9.99998 9.83534C9.90793 9.83534 9.83331 9.90996 9.83331 10.002C9.83331 10.0941 9.90793 10.1687 9.99998 10.1687ZM8.16665 10.002C8.16665 8.98948 8.98746 8.16867 9.99998 8.16867C11.0125 8.16867 11.8333 8.98948 11.8333 10.002C11.8333 11.0145 11.0125 11.8353 9.99998 11.8353C8.98746 11.8353 8.16665 11.0145 8.16665 10.002ZM15.8333 10.1687C15.9254 10.1687 16 10.0941 16 10.002C16 9.90996 15.9254 9.83534 15.8333 9.83534C15.7413 9.83534 15.6666 9.90996 15.6666 10.002C15.6666 10.0941 15.7413 10.1687 15.8333 10.1687ZM14 10.002C14 8.98948 14.8208 8.16867 15.8333 8.16867C16.8458 8.16867 17.6666 8.98948 17.6666 10.002C17.6666 11.0145 16.8458 11.8353 15.8333 11.8353C14.8208 11.8353 14 11.0145 14 10.002Z" fill="#516173"/>
</svg>
