<svg width="24" height="24" viewBox="0 0 24 24" fill="none" xmlns="http://www.w3.org/2000/svg">
<rect x="0.00201416" y="0.000488281" width="24" height="24" rx="12" fill="#DFE3E9"/>
<path fill-rule="evenodd" clip-rule="evenodd" d="M16.7091 8.7076C17.0996 8.31707 17.0996 7.68391 16.7091 7.29338C16.3186 6.90286 15.6854 6.90286 15.2949 7.29338L12.002 10.5863L8.70912 7.29338C8.3186 6.90286 7.68543 6.90286 7.29491 7.29338C6.90438 7.68391 6.90438 8.31707 7.29491 8.7076L10.5878 12.0005L7.29491 15.2934C6.90438 15.6839 6.90438 16.3171 7.29491 16.7076C7.68543 17.0981 8.3186 17.0981 8.70912 16.7076L12.002 13.4147L15.2949 16.7076C15.6854 17.0981 16.3186 17.0981 16.7091 16.7076C17.0996 16.3171 17.0996 15.6839 16.7091 15.2934L13.4162 12.0005L16.7091 8.7076Z" fill="#354052"/>
</svg>
