<svg width="24" height="24" viewBox="0 0 24 24" fill="none" xmlns="http://www.w3.org/2000/svg">
<path fill-rule="evenodd" clip-rule="evenodd" d="M16 1C16.5523 1 17 1.44772 17 2V2.00101H19C20.6569 2.00101 22 3.34415 22 5.00101V20.001C22 21.6579 20.6569 23.001 19 23.001H5C3.34315 23.001 2 21.6579 2 20.001V5.00101C2 3.34415 3.34315 2.00101 5 2.00101H7V2C7 1.44772 7.44772 1 8 1C8.55228 1 9 1.44772 9 2V2.00101H15V2C15 1.44772 15.4477 1 16 1ZM7 4.00101C7.00054 4.55283 7.44805 5 8 5C8.55195 5 8.99946 4.55283 9 4.00101H15C15.0005 4.55283 15.4481 5 16 5C16.5519 5 16.9995 4.55283 17 4.00101H19C19.5523 4.00101 20 4.44872 20 5.00101V7.00101H4V5.00101C4 4.44872 4.44772 4.00101 5 4.00101H7ZM4 9.00101H20V20.001C20 20.5533 19.5523 21.001 19 21.001H5C4.44772 21.001 4 20.5533 4 20.001V9.00101ZM7 11C6.44772 11 6 11.4477 6 12V14C6 14.5523 6.44772 15 7 15H9C9.55228 15 10 14.5523 10 14V12C10 11.4477 9.55228 11 9 11H7Z" fill="#354052"/>
</svg>
