<svg width="24" height="24" viewBox="0 0 24 24" fill="none" xmlns="http://www.w3.org/2000/svg">
<path fill-rule="evenodd" clip-rule="evenodd" d="M17 2C17 1.44772 16.5523 1 16 1C15.4477 1 15 1.44772 15 2V2.00101H9V2C9 1.44772 8.55228 1 8 1C7.44772 1 7 1.44772 7 2V2.00101H5C3.34315 2.00101 2 3.34415 2 5.00101V20.001C2 21.6579 3.34315 23.001 5 23.001H19C20.6569 23.001 22 21.6579 22 20.001V5.00101C22 3.34415 20.6569 2.00101 19 2.00101H17V2ZM8 5C7.44805 5 7.00054 4.55283 7 4.00101H5C4.44772 4.00101 4 4.44872 4 5.00101V7.00101H20V5.00101C20 4.44872 19.5523 4.00101 19 4.00101H17C16.9995 4.55283 16.5519 5 16 5C15.4481 5 15.0005 4.55283 15 4.00101H9C8.99946 4.55283 8.55195 5 8 5ZM20 9.00101H4V20.001C4 20.5533 4.44772 21.001 5 21.001H19C19.5523 21.001 20 20.5533 20 20.001V9.00101ZM6 16C6 15.4477 6.44772 15 7 15H10C10.5523 15 11 15.4477 11 16V18C11 18.5523 10.5523 19 10 19H7C6.44772 19 6 18.5523 6 18V16ZM13 11C12.4477 11 12 11.4477 12 12V14C12 14.5523 12.4477 15 13 15H17C17.5523 15 18 14.5523 18 14V12C18 11.4477 17.5523 11 17 11H13Z" fill="#516173"/>
</svg>
