<svg width="24" height="24" viewBox="0 0 24 24" fill="none" xmlns="http://www.w3.org/2000/svg">
<path fill-rule="evenodd" clip-rule="evenodd" d="M5 10.002C3.89543 10.002 3 10.8974 3 12.002C3 13.1066 3.89543 14.002 5 14.002C6.10457 14.002 7 13.1066 7 12.002C7 10.8974 6.10457 10.002 5 10.002ZM10 12.002C10 10.8974 10.8954 10.002 12 10.002C13.1046 10.002 14 10.8974 14 12.002C14 13.1066 13.1046 14.002 12 14.002C10.8954 14.002 10 13.1066 10 12.002ZM17 12.002C17 10.8974 17.8954 10.002 19 10.002C20.1046 10.002 21 10.8974 21 12.002C21 13.1066 20.1046 14.002 19 14.002C17.8954 14.002 17 13.1066 17 12.002Z" fill="#516173"/>
</svg>
