<svg width="24" height="24" viewBox="0 0 24 24" fill="none" xmlns="http://www.w3.org/2000/svg">
<path fill-rule="evenodd" clip-rule="evenodd" d="M8.08242 0.0465112C12.1719 -0.369913 16.1075 2.15602 17.4782 5.99992H18H18.0012C20.811 6.00323 23.2933 8.02326 23.8675 10.7737C24.4417 13.5242 22.975 16.3687 20.4012 17.4959C19.8953 17.7175 19.3056 17.487 19.084 16.9811C18.8625 16.4752 19.093 15.8855 19.5989 15.6639C21.3059 14.9163 22.2906 13.0068 21.9097 11.1825C21.5289 9.3583 19.8627 8.0023 17.9993 7.99992L17.9989 7.99992L16.74 7.99992C16.2841 7.99992 15.8858 7.69146 15.7718 7.24996C14.9197 3.9501 11.6555 1.69302 8.28503 2.03622C4.91457 2.37943 2.17234 5.24812 2.00282 8.65202C1.89197 10.8776 2.88352 13.0777 4.62431 14.4687C5.05576 14.8135 5.12603 15.4427 4.78126 15.8742C4.43649 16.3056 3.80723 16.3759 3.37578 16.0311C1.1327 14.2387 -0.137532 11.4202 0.00529198 8.55253C0.224157 4.158 3.73248 0.489453 8.08242 0.0465112ZM8 15C7.44771 15 7 15.4477 7 16C7 16.5523 7.44771 17 8 17H8.01C8.56228 17 9.01 16.5523 9.01 16C9.01 15.4477 8.56228 15 8.01 15H8ZM7 20C7 19.4477 7.44771 19 8 19H8.01C8.56228 19 9.01 19.4477 9.01 20C9.01 20.5523 8.56228 21 8.01 21H8C7.44771 21 7 20.5523 7 20ZM12 17C11.4477 17 11 17.4477 11 18C11 18.5523 11.4477 19 12 19H12.01C12.5623 19 13.01 18.5523 13.01 18C13.01 17.4477 12.5623 17 12.01 17H12ZM11 22C11 21.4477 11.4477 21 12 21H12.01C12.5623 21 13.01 21.4477 13.01 22C13.01 22.5523 12.5623 23 12.01 23H12C11.4477 23 11 22.5523 11 22ZM12 13C11.4477 13 11 13.4478 11 14C11 14.5523 11.4477 15 12 15H12.01C12.5623 15 13.01 14.5523 13.01 14C13.01 13.4478 12.5623 13 12.01 13H12ZM15 16C15 15.4477 15.4477 15 16 15H16.01C16.5623 15 17.01 15.4477 17.01 16C17.01 16.5523 16.5623 17 16.01 17H16C15.4477 17 15 16.5523 15 16ZM16 19C15.4477 19 15 19.4477 15 20C15 20.5523 15.4477 21 16 21H16.01C16.5623 21 17.01 20.5523 17.01 20C17.01 19.4477 16.5623 19 16.01 19H16Z" fill="#0085F0"/>
</svg>
