<svg width="16" height="17" viewBox="0 0 16 17" fill="none" xmlns="http://www.w3.org/2000/svg">
<g filter="url(#filter0_d_2304_5198)">
<path fill-rule="evenodd" clip-rule="evenodd" d="M4.99996 2.13819C4.99996 1.17689 5.76029 0.334351 6.77481 0.334351H9.22511C10.2396 0.334351 11 1.17689 11 2.13819C11 2.74141 10.7289 3.17571 10.3993 3.4713C10.8691 3.66376 11.3106 3.91104 11.716 4.2052L12.3147 3.60798L12.0809 3.37316C11.6913 2.98174 11.6928 2.34858 12.0842 1.95895C12.4756 1.56933 13.1088 1.57078 13.4984 1.9622L14.4369 2.90501L15.3754 3.84782C15.765 4.23924 15.7635 4.87241 15.3721 5.26203C14.9807 5.65166 14.3475 5.6502 13.9579 5.25878L13.7256 5.02544L13.13 5.61958C13.887 6.66311 14.3333 7.94661 14.3333 9.33435C14.3333 12.8322 11.4978 15.6677 7.99996 15.6677C4.50216 15.6677 1.66663 12.8322 1.66663 9.33435C1.66663 6.68696 3.29097 4.41896 5.59739 3.47262C5.26851 3.17514 4.99996 2.73981 4.99996 2.13819ZM3.66663 9.33435C3.66663 6.94112 5.60673 5.00102 7.99996 5.00102C10.3932 5.00102 12.3333 6.94112 12.3333 9.33435C12.3333 11.7276 10.3932 13.6677 7.99996 13.6677C5.60673 13.6677 3.66663 11.7276 3.66663 9.33435ZM7.99996 7.66768C8.92043 7.66768 9.66663 8.41388 9.66663 9.33435C9.66663 9.79002 9.48509 10.2013 9.1881 10.5032C8.80076 10.8968 8.80591 11.53 9.19959 11.9173C9.59327 12.3047 10.2264 12.2995 10.6138 11.9058C11.2639 11.2451 11.6666 10.3358 11.6666 9.33435C11.6666 7.30931 10.025 5.66768 7.99996 5.66768V7.66768Z" fill="white"/>
</g>
<defs>
<filter id="filter0_d_2304_5198" x="0" y="0.00170898" width="16" height="17" filterUnits="userSpaceOnUse" color-interpolation-filters="sRGB">
<feFlood flood-opacity="0" result="BackgroundImageFix"/>
<feColorMatrix in="SourceAlpha" type="matrix" values="0 0 0 0 0 0 0 0 0 0 0 0 0 0 0 0 0 0 127 0" result="hardAlpha"/>
<feOffset dy="1"/>
<feColorMatrix type="matrix" values="0 0 0 0 0.109804 0 0 0 0 0.109804 0 0 0 0 0.109804 0 0 0 0.1 0"/>
<feBlend mode="normal" in2="BackgroundImageFix" result="effect1_dropShadow_2304_5198"/>
<feBlend mode="normal" in="SourceGraphic" in2="effect1_dropShadow_2304_5198" result="shape"/>
</filter>
</defs>
</svg>
